<?xml version="1.0" encoding="UTF-8"?><svg id="Layer_1" xmlns="http://www.w3.org/2000/svg" viewBox="0 0 223.44 82.91"><defs><style>.cls-1{fill:#35A37C;}</style></defs><path class="cls-1" d="M32.43,18.05c-6.3,0-12.17,1.79-17.16,4.9V0H0V50.47c0,2.11,.21,4.18,.6,6.18,2.88,14.96,16.04,26.26,31.84,26.26,17.91,0,32.43-14.52,32.43-32.43S50.35,18.05,32.43,18.05Zm18.23,32.43c0,10.07-8.16,18.24-18.23,18.24-6.18,0-11.64-3.07-14.93-7.78-.29-.41-.56-.85-.82-1.29l8.12-8.75,8.71,8.2,12.58-13.4,2.53,2.13,2.81-10.72-10.56,4,2.57,2.26-10.15,9.93-8.42-7.63-9.76,10.48c-.18-.54-.34-1.09-.47-1.66-.29-1.29-.44-2.64-.44-4.02,0-2.17,.38-4.25,1.07-6.18,2.53-7.03,9.25-12.05,17.16-12.05,5.13,0,9.77,2.12,13.08,5.54l8.07-3.06-3.24,12.37c.21,1.1,.32,2.22,.32,3.38Z"/><g><path class="cls-1" d="M115.46,68.57l-21.61-10.16v-4.86c0-2.59,.74-4.96,2.22-7.11,1.48-2.15,3.67-3.68,6.59-4.59l12.8-3.94v-2.09h-25.06v-5.54h35.71v5.54h-4.19v32.75h-6.46Zm0-24.81l-10.65,3.26c-3,.9-4.49,2.77-4.49,5.6v2.59l15.14,7.14v-18.59Z"/><path class="cls-1" d="M129.07,68.57V35.82h-4.19v-5.54h4.19v-1.97c0-2.46,.61-4.76,1.82-6.9,1.21-2.13,2.88-3.84,5.02-5.11,2.01-1.15,3.66-1.76,4.96-1.85,1.29-.08,2.25-.12,2.86-.12,1.19,0,8.17,.84,20.93,2.52l-.74,5.48c-12.48-1.64-19.1-2.46-19.88-2.46-2.01,0-3.61,.37-4.8,1.11-2.46,1.64-3.69,3.8-3.69,6.46v2.83h4.12v5.54h-4.12v32.75h-6.46Z"/><path class="cls-1" d="M164.46,68.57v-13.54c0-2.5-.88-4.64-2.65-6.4-1.77-1.76-3.9-2.65-6.4-2.65h-.8c-1.81,0-3.34,.63-4.62,1.88-1.27,1.25-1.91,2.78-1.91,4.59v.99c0,1.48,.53,2.74,1.6,3.79,1.07,1.05,2.32,1.57,3.75,1.57h2.46v5.54h-2.46c-3.24,0-6.02-1.06-8.34-3.17-2.32-2.11-3.48-4.69-3.48-7.73v-.99c0-3.32,1.27-6.16,3.82-8.5,2.54-2.34,5.6-3.51,9.17-3.51,3.94,0,7.22,.96,9.85,2.89v-7.51h-26.29v-5.54h36.87v5.54h-4.12v32.75h-6.46Z"/><path class="cls-1" d="M198.87,68.57l-21.61-10.16v-4.86c0-2.59,.74-4.96,2.22-7.11,1.48-2.15,3.67-3.68,6.59-4.59l12.8-3.94v-2.09h-25.05v-5.54h49.62v5.54h-18.1v2.15h2.34c3.65,0,6.74,1.06,9.26,3.17,2.52,2.11,3.79,4.67,3.79,7.66v.86c0,2.67-1.04,4.93-3.11,6.8-2.07,1.87-4.57,2.8-7.48,2.8v-5.54c1.11,0,2.07-.39,2.89-1.17,.82-.78,1.23-1.74,1.23-2.89v-.86c0-1.48-.63-2.73-1.88-3.76-1.25-1.03-2.82-1.54-4.71-1.54h-2.34v25.06h-6.46Zm0-24.81l-10.65,3.26c-3,.9-4.49,2.77-4.49,5.6v2.59l15.14,7.14v-18.59Z"/></g></svg>